<html>
<head>
<meta charset="UTF-8">
<meta name="viewport" content="width=device-width, initial-scale=1.0"/>

<style>
.comment
{
    padding-left: 20px;
    margin-top: 4px;
    margin-right: 4px;
    margin-bottom: 4px;
    border: 2px #000 solid;
}
.submission
{
    border: 4px #00f solid;
    padding-left: 20px;
}
.hidden
{
    display: none;
}
</style>
</head>
<body><div class="submission" id="t3_7k75yr">
    <p class="userinfo">
        <a href="https://www.reddit.com/u/Charlie_Kain">Charlie_Kain</a>
        <span class="score"> | 20 points</span>
        <span class="timestamp"> | Dec 16 2017 14:06:45</span>
    </p>
    <strong>[Education] Acland's DVD Atlas of Human Anatomy, Set of Six DVDs</strong>
    <p><p><a href="http://links.snahp.it/72297768">Link</a></p>
<p>Password=name of this subreddit in all common letters (after r/)</p>
<p>key: !xEhazELadCPVR9diSkbE2A</p>
<p>example quality of 1 video</p>
<p>General</p>
<blockquote>
<p>Complete name               : C:\Users\Anatomy\Volume 4 - The Head and Neck Part 1\Head and Neck 1 - 4 of 7.mp4
Format                      : MPEG-4
Format profile              : Base Media / Version 2
Codec ID                    : mp42 (mp42/mp41)
File size                   : 115 MiB
Duration                    : 28 min 58 s
Overall bit rate mode       : Variable
Overall bit rate            : 555 kb/s
Encoded date                : UTC 2008-07-19 18:49:00
Tagged date                 : UTC 2008-07-19 18:49:19
Xtra                        : WM/MediaClassPrimaryID</p>
</blockquote>
<p>Video</p>
<blockquote>
<p>ID                          : 1
Format                      : MPEG-4 Visual
Format profile              : Simple@L3
Format settings, BVOP       : No
Format settings, QPel       : No
Format settings, GMC        : No warppoints
Format settings, Matrix     : Default (H.263)
Codec ID                    : 20
Duration                    : 28 min 58 s
Bit rate                    : 424 kb/s
Width                       : 640 pixels
Height                      : 480 pixels
Display aspect ratio        : 4:3
Frame rate mode             : Constant
Frame rate                  : 29.970 (29970/1000) FPS
Color space                 : YUV
Chroma subsampling          : 4:2:0
Bit depth                   : 8 bits
Scan type                   : Progressive
Compression mode            : Lossy
Bits/(Pixel*Frame)          : 0.046
Stream size                 : 87.9 MiB (76%)
Writing library             : XviD 1.2.0.dev47 (UTC 2006-11-01)
Encoded date                : UTC 2008-07-19 18:48:56
Tagged date                 : UTC 2008-07-19 18:49:19</p>
</blockquote>
<p>Audio</p>
<blockquote>
<p>ID                          : 2
Format                      : AAC
Format/Info                 : Advanced Audio Codec
Format profile              : LC
Codec ID                    : 40
Duration                    : 28 min 58 s
Bit rate mode               : Variable
Bit rate                    : 128 kb/s
Channel(s)                  : 2 channels
Channel positions           : Front: L R
Sampling rate               : 44.1 kHz
Frame rate                  : 43.066 FPS (1024 SPF)
Compression mode            : Lossy
Stream size                 : 26.5 MiB (23%)
Encoded date                : UTC 2008-07-19 18:48:56
Tagged date                 : UTC 2008-07-19 18:49:19</p>
</blockquote></p>
    <p class="toolbar">
        <a href="https://www.reddit.com/r/megalinks/comments/7k75yr">permalink</a>
    </p>
</div>

</body>

<script>
function toggle_collapse(comment_div)
{
    var button = comment_div.getElementsByClassName("toggle_hide_button")[0];
    var collapsible = comment_div.getElementsByClassName("collapsible")[0];
    if (collapsible.classList.contains("hidden"))
    {
        collapsible.classList.remove("hidden");
        button.innerText = "[-]";
    }
    else
    {
        collapsible.classList.add("hidden");
        button.innerText = "[+]";
    }
}
</script>
</html>
